<?xml version="1.0" encoding="UTF-8"?>
<svg id="Layer_1" data-name="Layer 1" xmlns="http://www.w3.org/2000/svg" xmlns:xlink="http://www.w3.org/1999/xlink" viewBox="0 0 327 327">
  <defs>
    <style>
      .cls-1 {
        fill: url(#linear-gradient-2);
      }

      .cls-2 {
        fill: url(#linear-gradient);
      }
    </style>
    <linearGradient id="linear-gradient" x1="313.14" y1="25.4" x2="31.74" y2="207.96" gradientUnits="userSpaceOnUse">
      <stop offset="0" stop-color="#000"/>
      <stop offset="1" stop-color="#611fe7"/>
    </linearGradient>
    <linearGradient id="linear-gradient-2" x1="357.98" y1="94.52" x2="76.59" y2="277.08" xlink:href="#linear-gradient"/>
  </defs>
  <path class="cls-2" d="m65.93,168.83c1.29-2.37,2.58-4.74,3.88-7.1,4.27-7.77,8.54-15.54,12.82-23.31,2.28-4.14,6.46-4.71,9.74-1.32,5.42,5.59,10.82,11.2,16.22,16.82,2.73,2.84,6.53,2.69,8.91-.44,6.48-8.55,12.94-17.13,19.41-25.69,2.83-3.75,6.04-4.1,9.59-1.07,14.52,12.42,29.05,24.84,43.58,37.25.34.29.7.57,1.15.94,2.11-2.44,4.22-4.86,6.32-7.28,11.42-13.17,22.84-26.34,34.25-39.52,2.73-3.16,2.77-5.47.13-8.68-1.24-1.51-2.24-3.06-2.04-5.14.24-2.43,1.95-4.39,4.52-4.96,12.86-2.84,25.71-5.67,38.58-8.46,4.59-1,8.11,2.87,6.68,7.35-1.96,6.12-4.01,12.2-6.02,18.3-2.06,6.23-4.09,12.46-6.19,18.67-1.06,3.15-3.93,4.72-6.95,3.79-.91-.28-1.83-.84-2.52-1.51-2.91-2.82-6.21-2.83-8.85.16-13.22,14.96-26.43,29.94-39.65,44.91-3,3.39-5.95,6.83-9.02,10.16-1.09,1.18-2.4,2.21-3.74,3.09-2.26,1.49-4.86,1.07-7.08-.93-9.13-8.27-18.25-16.54-27.37-24.81-4.43-4.01-8.86-8.03-13.28-12.04-2.94-2.67-6.37-2.37-8.8.83-6.73,8.88-13.54,17.7-20.09,26.7-2.85,3.91-7.35,3.67-10.01.67-4.08-4.61-8.5-8.91-12.78-13.34-3.21-3.32-7.16-2.87-9.59,1.11-6.9,11.32-13.79,22.65-20.69,33.98-1.27,2.09-2.48,4.21-3.87,6.23-.42.62-1.33,1.27-1.99,1.25-.67-.02-1.6-.71-1.92-1.35-6.09-12.02-10.03-24.71-11.53-38.1-2.96-26.47,2.76-51,17.44-73.19,16.17-24.43,38.68-40.24,67.25-46.9,26.19-6.1,51.44-2.93,75.49,9.2,11.68,5.89,21.89,13.77,30.79,23.35,1.68,1.81,1.12,3.4-1.27,4.04-4.94,1.31-9.86,2.67-14.77,4.05-1.14.32-1.97.05-2.82-.73-9.74-8.95-20.87-15.53-33.44-19.69-12.83-4.24-25.97-5.57-39.39-4.01-19.83,2.3-37.15,10.22-51.81,23.74-15.65,14.43-25.15,32.26-28.61,53.27-1,6.09-1.35,12.24-1.03,18.41.02.4.07.81.11,1.21l.28.08Z"/>
  <path class="cls-1" d="m153.86,274.12c-27.13-.45-53.56-11.38-75.38-33.24-4.84-4.85-9.09-10.21-12.94-15.88-.79-1.16-.83-2.17-.09-3.37,2.61-4.18,5.17-8.41,7.75-12.61,1.36-2.21,2.99-2.18,4.29.05,9.94,17.11,23.84,29.91,41.82,38.21,11.03,5.09,22.64,7.86,34.77,8.21,25.52.72,47.79-7.52,66.44-24.95,15.77-14.74,25.11-32.97,28.15-54.37,1.01-7.1,1.1-14.25.83-21.4-.03-.76.16-1.63.53-2.3,1.32-2.37,2.76-4.68,4.17-7,1.05-1.72,2.53-1.83,3.85-.3,2.9,3.36,5.81,6.71,8.65,10.12.48.58.85,1.42.91,2.17,1.5,17.24-1.56,33.79-8.47,49.51-13.27,30.21-35.69,50.73-66.89,61.52-11.22,3.88-22.83,5.57-38.4,5.62Z"/>
</svg>