<?xml version="1.0" encoding="UTF-8"?>
<svg id="Layer_1" data-name="Layer 1" xmlns="http://www.w3.org/2000/svg" viewBox="0 0 1080 303.49">
  <g>
    <path d="m40.59,151.07c1.29-2.37,2.58-4.74,3.88-7.1,4.27-7.77,8.54-15.54,12.82-23.31,2.28-4.14,6.46-4.71,9.74-1.32,5.42,5.59,10.82,11.2,16.22,16.82,2.73,2.84,6.53,2.69,8.91-.44,6.48-8.55,12.94-17.13,19.41-25.69,2.83-3.75,6.04-4.1,9.59-1.07,14.52,12.42,29.05,24.84,43.58,37.25.34.29.7.57,1.15.94,2.11-2.44,4.22-4.86,6.32-7.28,11.42-13.17,22.84-26.34,34.25-39.52,2.73-3.16,2.77-5.47.13-8.68-1.24-1.51-2.24-3.06-2.04-5.14.24-2.43,1.95-4.39,4.52-4.96,12.86-2.84,25.71-5.67,38.58-8.46,4.59-1,8.11,2.87,6.68,7.35-1.96,6.12-4.01,12.2-6.02,18.3-2.06,6.23-4.09,12.46-6.19,18.67-1.06,3.15-3.93,4.72-6.95,3.79-.91-.28-1.83-.84-2.52-1.51-2.91-2.82-6.21-2.83-8.85.16-13.22,14.96-26.43,29.94-39.65,44.91-3,3.39-5.95,6.83-9.02,10.16-1.09,1.18-2.4,2.21-3.74,3.09-2.26,1.49-4.86,1.07-7.08-.93-9.13-8.27-18.25-16.54-27.37-24.81-4.43-4.01-8.86-8.03-13.28-12.04-2.94-2.67-6.37-2.37-8.8.83-6.73,8.88-13.54,17.7-20.09,26.7-2.85,3.91-7.35,3.67-10.01.67-4.08-4.61-8.5-8.91-12.78-13.34-3.21-3.32-7.16-2.87-9.59,1.11-6.9,11.32-13.79,22.65-20.69,33.98-1.27,2.09-2.48,4.21-3.87,6.23-.42.62-1.33,1.27-1.99,1.25-.67-.02-1.6-.71-1.92-1.35-6.09-12.02-10.03-24.71-11.53-38.1-2.96-26.47,2.76-51,17.44-73.19,16.17-24.43,38.68-40.24,67.25-46.9,26.19-6.1,51.44-2.93,75.49,9.2,11.68,5.89,21.89,13.77,30.79,23.35,1.68,1.81,1.12,3.4-1.27,4.04-4.94,1.31-9.86,2.67-14.77,4.05-1.14.32-1.97.05-2.82-.73-9.74-8.95-20.87-15.53-33.44-19.69-12.83-4.24-25.97-5.57-39.39-4.01-19.83,2.3-37.15,10.22-51.81,23.74-15.65,14.43-25.15,32.26-28.61,53.27-1,6.09-1.35,12.24-1.03,18.41.02.4.07.81.11,1.21l.28.08Z"/>
    <path d="m128.52,256.36c-27.13-.45-53.56-11.38-75.38-33.24-4.84-4.85-9.09-10.21-12.94-15.88-.79-1.16-.83-2.17-.09-3.37,2.61-4.18,5.17-8.41,7.75-12.61,1.36-2.21,2.99-2.18,4.29.05,9.94,17.11,23.84,29.91,41.82,38.21,11.03,5.09,22.64,7.86,34.77,8.21,25.52.72,47.79-7.52,66.44-24.95,15.77-14.74,25.11-32.97,28.15-54.37,1.01-7.1,1.1-14.25.83-21.4-.03-.76.16-1.63.53-2.3,1.32-2.37,2.76-4.68,4.17-7,1.05-1.72,2.53-1.83,3.85-.3,2.9,3.36,5.81,6.71,8.65,10.12.48.58.85,1.42.91,2.17,1.5,17.24-1.56,33.79-8.47,49.51-13.27,30.21-35.69,50.73-66.89,61.52-11.22,3.88-22.83,5.57-38.4,5.62Z"/>
  </g>
  <g>
    <path d="m320.52,193.03c-3.53-7.7-6.81-14.85-10.09-22.01-3.23-7.06-6.46-14.13-10.23-21.1,0,.76,0,1.51,0,2.27,0,11.29,0,22.57,0,33.86,0,2.03-.22,4.08,2.14,5.17.3.14.3.93.49,1.59h-16.52c.31-.75.38-1.55.77-1.76,1.95-1.04,1.92-2.79,1.92-4.6,0-17.17,0-34.34,0-51.51,0-1.88.1-3.74-2.02-4.77-.33-.16-.36-.92-.61-1.62h21.65c-.34.73-.46,1.46-.89,1.81-1.39,1.13-1.41,2.44-.76,3.9,4.92,10.93,9.86,21.86,14.8,32.78.09.21.27.37.51.7,5.25-11.28,10.42-22.35,15.56-33.45.75-1.61,1.16-3.25-.98-4.32-.27-.13-.27-.8-.45-1.41h21.02c-.14.61-.12,1.32-.37,1.43-2.51,1.12-2.15,3.31-2.15,5.4,0,17.01,0,34.02,0,51.03,0,1.87-.2,3.76,2.02,4.72.32.14.37.92.63,1.63h-17.62c.48-.8.85-1.35,1.15-1.93.57-1.09,1.56-2.2,1.57-3.3.11-12.56.07-25.13-.47-37.91-6.95,14.31-13.9,28.62-21.07,43.4Z"/>
    <path d="m676.71,192.76h-16.75c.31-.72.39-1.54.78-1.73,1.92-.93,1.92-2.59,1.92-4.32,0-17.42,0-34.84,0-52.25,0-1.75-.07-3.39-1.99-4.28-.34-.16-.42-.9-.72-1.62h19.04c-.11.55-.04,1.27-.34,1.5-2.33,1.73-1.19,3.34.1,4.91,8.81,10.71,17.63,21.4,26.46,32.1.97,1.18,1.96,2.34,3.38,4.03.09-1.36.18-2.17.18-2.97,0-10.97,0-21.93,0-32.9,0-2.02.15-4.09-2.18-5.18-.27-.13-.28-.82-.48-1.47h16.64c-.33.67-.45,1.44-.84,1.62-1.87.84-1.87,2.39-1.87,4.06.02,17.42.02,34.84,0,52.25,0,1.89-.17,3.75,2.08,4.67.31.13.33.94.55,1.61h-17.57c.1-.62,0-1.39.28-1.6,2.13-1.47,1.12-2.91,0-4.27-10.07-12.18-20.16-24.33-30.25-36.49-.19-.23-.46-.41-1.04-.93-.07,1.17-.15,1.99-.15,2.81,0,11.45,0,22.9-.02,34.35,0,1.83,0,3.56,2.05,4.47.34.15.42.9.71,1.61Z"/>
    <path d="m434.14,128.4c1.44,0,2.32,0,3.19,0,12.17.03,24.34.03,36.52.11,1.76.01,3.55.27,5.26.66,7.25,1.65,11.72,6.8,12.56,14.7.29,2.7.3,5.5-.08,8.18-1.01,7.1-5.2,11.57-12.08,13.55-.62.18-1.24.33-1.86.52-.14.04-.25.19-.6.48,4.63,7.4,9.24,14.85,13.98,22.23.6.93,1.87,1.43,2.79,2.17.5.4.94.89,1.88,1.8h-21.08c.26-.68.32-1.46.64-1.58,2.05-.79,1.65-2.12.85-3.49-3.9-6.67-7.82-13.33-11.79-19.97-.28-.47-.95-.99-1.44-1-4.49-.08-8.98-.05-13.68-.05,0,7.46-.04,14.7.06,21.93.01.72.85,1.44,1.34,2.14.39.55.82,1.07,1.54,2h-17.83c.25-.71.29-1.54.65-1.72,1.98-.99,2.03-2.74,2.03-4.54,0-17.25,0-34.5,0-51.75,0-1.79,0-3.58-1.99-4.56-.36-.18-.44-.89-.86-1.81Zm15.1,27.27c8.03,0,15.82.18,23.61-.07,4.37-.14,6.61-2.86,6.81-7.24.29-6.16-2.46-9.14-8.71-9.21-6.85-.08-13.7-.02-20.55,0-.37,0-.75.12-1.17.19v16.35Z"/>
    <path d="m619.46,194.02c-17.04-.02-29.51-11.26-31.46-28.2-.66-5.77-.35-11.41,1.41-16.95,5.15-16.26,17.81-22.61,33.23-21.64,19.48,1.22,30.62,18.17,28.49,37.57-.49,4.46-1.9,9.04-3.89,13.07-5.6,11.38-15.37,16.18-27.78,16.15Zm19.56-34.66c-.26-1.52-.41-4.3-1.22-6.87-2.46-7.88-7.61-12.99-16.04-14.05-7.8-.98-13.82,2.16-18.05,8.68-5.05,7.78-4.77,20.18.52,27.7,6.28,8.93,18.85,10.87,26.95,4.02,5.61-4.74,7.64-11.13,7.85-19.48Z"/>
    <path d="m907.22,194.04c-18.29.03-31-12.15-32.08-30.78-.68-11.87,2.39-22.65,12.24-30.03,10.18-7.63,21.82-8.14,33.27-3.36,11.01,4.6,16.24,13.92,17.79,25.47,1.22,9.12-.43,17.64-5.39,25.43-5.07,7.96-12.5,12.07-21.78,13.02-1.44.15-2.89.18-4.05.25Zm-19.98-33.37c.47,2.69.71,5.44,1.44,8.05,2.16,7.72,8.67,13.34,15.89,13.99,8.65.78,15.33-2.74,19.04-10.33,3.72-7.61,3.84-15.45.33-23.13-3.06-6.69-8.5-10.48-15.88-10.97-7.2-.48-12.82,2.53-16.79,8.55-2.76,4.18-3.76,8.84-4.02,13.83Z"/>
    <path d="m821.32,171.06c.24.53.44,1.09.74,1.59.93,1.54,1.55,3.55,2.9,4.5,6.94,4.87,14.65,6.9,23.1,5,2.9-.66,5.41-2.09,7.01-4.76,2.39-4,1.04-7.79-3.49-8.7-5.36-1.08-10.82-1.65-16.23-2.46-1.75-.26-3.51-.51-5.23-.93-8.81-2.18-13.86-9.04-13.39-18.14.56-11,7.55-18.24,18.52-19.71,9.36-1.25,17.87,1.06,26.1,5.19,1.64.82,3.31,2.29,5.35.71.03-.02,1.11.95,1.02,1.17-2,4.81-4.09,9.58-6.14,14.29-.42-.06-.68-.03-.71-.1-2.42-6.39-8.1-8.28-13.89-9.8-4.1-1.08-8.36-1.12-12.4.28-1.75.61-3.55,1.68-4.79,3.03-3.21,3.48-1.85,8.06,2.75,9.11,3.99.91,8.12,1.19,12.17,1.85,3.49.57,7.04,1,10.42,1.98,7.48,2.17,11.82,7.3,12.69,15.06.92,8.26-1.42,15.4-8.94,19.64-9.81,5.54-20.22,5.28-30.61,1.64-3.02-1.06-5.81-2.76-8.77-4-.89-.37-2.03-.17-3.05-.25-.43-.03-1.04.06-1.24-.17-.23-.27-.24-.9-.1-1.29,1.83-4.88,3.7-9.74,5.56-14.61.22-.04.45-.08.67-.13Z"/>
    <path d="m732.4,128.4h2.95c14.67,0,29.34-.02,44.01.02,2.26,0,4.43.09,5.25-2.68.06-.21.64-.28,1.2-.5v17.13c-.64-.44-1.25-.63-1.37-.99-.65-2.02-2.11-2.3-3.98-2.29-10.95.06-21.91.03-33.03.03v15.08c2.04,0,4.1,0,6.16,0,4.92,0,9.83-.04,14.75.02,1.85.02,3.35-.26,4-2.29.12-.36.71-.57,1.4-1.09v17.27c-.78-.78-1.19-1.26-1.66-1.65-.75-.62-1.53-1.68-2.32-1.7-7.4-.13-14.8-.08-22.36-.08v17.49h2.59c10.24,0,20.47-.03,30.71.02,2.14.01,4.08-.03,4.8-2.57.05-.16.34-.29.55-.37.13-.05.31.02.67.06v16.95c-.64-.54-1.24-.79-1.39-1.21-.67-1.88-2.06-2.18-3.83-2.18-15.4.04-30.79.02-46.19.02h-3.08c.41-.89.51-1.67.9-1.86,1.91-.92,1.95-2.54,1.95-4.29-.02-17.25-.02-34.5,0-51.74,0-1.96.18-3.91-2.09-4.94-.31-.14-.34-.9-.61-1.68Z"/>
    <path d="m562.76,192.83h-22.29c.37-.76.5-1.59.91-1.77,1.93-.87,1.44-2.07.58-3.31-3.2-4.64-6.43-9.27-9.67-13.89-2.53-3.61-5.09-7.21-7.73-10.95-2.57,2.44-5.02,4.65-7.31,7.01-.57.59-.85,1.68-.86,2.55-.08,4.84-.02,9.67-.05,14.51,0,1.67.06,3.21,1.89,4.08.39.19.5.98.85,1.74h-17.71c.36-.76.48-1.57.9-1.79,1.69-.85,1.82-2.31,1.82-3.89,0-17.66,0-35.31,0-52.97,0-1.59-.13-3.04-1.81-3.89-.43-.22-.62-.91-1.12-1.72h17.81c-.24.65-.29,1.41-.61,1.56-2.05.93-2.04,2.67-2.03,4.49.02,6.76,0,13.52,0,20.74.78-.6,1.27-.91,1.69-1.31,6.66-6.33,13.33-12.65,19.95-19.01.86-.82,1.9-1.76,2.12-2.81.13-.63-1.19-1.53-1.77-2.37-.19-.28-.11-.75-.18-1.29h23.23c-9.47,8.81-18.55,17.27-27.7,25.79.23.48.38.94.64,1.31,7.31,10.23,14.57,20.49,22.02,30.62,1.42,1.93,3.62,3.26,5.43,4.92.35.32.51.83.98,1.65Z"/>
    <path d="m385.31,128.51h20.06c-.37.75-.48,1.49-.88,1.71-2.58,1.42-1.9,3.44-1.06,5.44,2.86,6.83,5.77,13.63,8.66,20.44,4,9.4,7.96,18.82,12.02,28.19,1.16,2.68,1.92,5.73,5.14,6.96.3.11.34.89.57,1.55h-21.06c.54-.82.76-1.54,1.22-1.8,1.9-1.03,2.06-2.58,1.37-4.32-1.21-3.07-2.47-6.12-3.85-9.11-.25-.54-1.2-1.05-1.83-1.06-7.33-.07-14.67-.08-22,0-.68,0-1.68.61-1.96,1.21-1.32,2.84-2.47,5.77-3.63,8.68-.73,1.83-.7,3.44,1.35,4.52.49.26.72.99,1.3,1.85h-19.03c.46-.79.72-1.36,1.09-1.84,1.05-1.36,2.53-2.52,3.17-4.05,6.96-16.62,13.81-33.29,20.66-49.95,1.03-2.51,2.1-5.07-1.07-6.99-.25-.15-.17-.86-.26-1.44Zm9.45,16.52c-3.06,7.74-5.93,15.01-8.86,22.42h17.62c-2.93-7.49-5.75-14.72-8.76-22.42Z"/>
    <path d="m947.46,192.73c.2-.66.21-1.46.52-1.6,2.3-1.03,2.07-3.02,2.07-4.96,0-16.85,0-33.7,0-50.55,0-2.17.35-4.43-2.18-5.66-.24-.12-.19-.84-.33-1.56h2.79c14.59,0,29.19,0,43.78,0,2.21,0,4.45.24,5.28-2.6.07-.25.77-.32,1.36-.54v17.26c-.81-.76-1.24-1.24-1.75-1.62-.83-.63-1.7-1.69-2.56-1.7-11.28-.11-22.56-.08-34.03-.08v15.24c3.48,0,6.84,0,10.21,0,3.55,0,7.1-.03,10.64.01,1.9.02,3.55-.2,4.15-2.42.08-.31.67-.47,1.36-.93v17.02c-.7-.65-1.12-1.1-1.61-1.47-.84-.63-1.71-1.71-2.58-1.73-7.33-.14-14.66-.08-22.36-.08v2.68c0,6.21.02,12.42,0,18.62,0,2.06-.11,4.07,2.2,5.16.27.13.27.83.46,1.49h-17.4Z"/>
    <path d="m1022.33,192.77c.17-.69.15-1.41.42-1.54,2.42-1.15,2.22-3.29,2.22-5.4,0-14.59,0-29.18,0-43.77v-2.9c-6.05,0-11.9-.05-17.75.07-.64.01-1.28,1.04-1.88,1.64-.42.42-.77.9-1.64,1.08v-16.75c.65.33,1.29.45,1.36.72.65,2.31,2.37,2.49,4.37,2.49,14.19-.03,28.38-.03,42.57,0,2.16,0,4.28.13,5.05-2.58.07-.25.75-.32,1.33-.55v17.15c-.72-.55-1.35-.78-1.5-1.18-.64-1.73-1.85-2.18-3.59-2.16-5.3.08-10.6.03-16.16.03,0,1.07,0,1.93,0,2.79,0,14.83,0,29.67,0,44.5,0,1.89-.13,3.74,2.04,4.72.32.14.35.93.58,1.63h-17.43Z"/>
  </g>
</svg>